<mxfile host="app.diagrams.net" modified="2021-05-12T03:21:42.805Z" agent="5.0 (Macintosh; Intel Mac OS X 10_14_6) AppleWebKit/537.36 (KHTML, like Gecko) Chrome/90.0.4430.93 Safari/537.36" etag="xHn_Ti2w-mXQR0EPF5tF" version="14.6.12" type="github" pages="4">
  <diagram id="hzfjIlR3qatyx32ulYAV" name="HashMap">
    <mxGraphModel dx="1426" dy="794" grid="1" gridSize="10" guides="1" tooltips="1" connect="1" arrows="1" fold="1" page="1" pageScale="1" pageWidth="827" pageHeight="1169" math="0" shadow="0">
      <root>
        <mxCell id="0" />
        <mxCell id="1" parent="0" />
        <mxCell id="SUs-a6CJwETZ14rcJxrB-38" value="" style="rounded=0;whiteSpace=wrap;html=1;strokeColor=#FF421C;fillColor=none;" parent="1" vertex="1">
          <mxGeometry x="199" y="970" width="430" height="576" as="geometry" />
        </mxCell>
        <mxCell id="SUs-a6CJwETZ14rcJxrB-83" style="edgeStyle=orthogonalEdgeStyle;rounded=0;orthogonalLoop=1;jettySize=auto;html=1;exitX=0.25;exitY=1;exitDx=0;exitDy=0;" parent="1" source="SUs-a6CJwETZ14rcJxrB-64" target="SUs-a6CJwETZ14rcJxrB-61" edge="1">
          <mxGeometry relative="1" as="geometry" />
        </mxCell>
        <mxCell id="SUs-a6CJwETZ14rcJxrB-64" value="" style="rounded=0;whiteSpace=wrap;html=1;strokeColor=#000000;fillColor=none;" parent="1" vertex="1">
          <mxGeometry x="223" y="1328" width="335" height="92" as="geometry" />
        </mxCell>
        <mxCell id="SUs-a6CJwETZ14rcJxrB-12" value="" style="rounded=0;whiteSpace=wrap;html=1;fillColor=none;dashed=1;strokeColor=#FF421C;" parent="1" vertex="1">
          <mxGeometry x="217" y="130" width="190" height="210" as="geometry" />
        </mxCell>
        <mxCell id="SUs-a6CJwETZ14rcJxrB-3" value="" style="edgeStyle=orthogonalEdgeStyle;rounded=0;orthogonalLoop=1;jettySize=auto;html=1;" parent="1" source="SUs-a6CJwETZ14rcJxrB-1" target="SUs-a6CJwETZ14rcJxrB-2" edge="1">
          <mxGeometry relative="1" as="geometry" />
        </mxCell>
        <mxCell id="SUs-a6CJwETZ14rcJxrB-1" value="put" style="rounded=0;whiteSpace=wrap;html=1;" parent="1" vertex="1">
          <mxGeometry x="267" y="70" width="80" height="30" as="geometry" />
        </mxCell>
        <mxCell id="SUs-a6CJwETZ14rcJxrB-5" value="" style="edgeStyle=orthogonalEdgeStyle;rounded=0;orthogonalLoop=1;jettySize=auto;html=1;" parent="1" source="SUs-a6CJwETZ14rcJxrB-2" target="SUs-a6CJwETZ14rcJxrB-4" edge="1">
          <mxGeometry relative="1" as="geometry" />
        </mxCell>
        <mxCell id="SUs-a6CJwETZ14rcJxrB-2" value="table为空？" style="rhombus;whiteSpace=wrap;html=1;" parent="1" vertex="1">
          <mxGeometry x="252" y="150" width="110" height="60" as="geometry" />
        </mxCell>
        <mxCell id="SUs-a6CJwETZ14rcJxrB-7" value="" style="edgeStyle=orthogonalEdgeStyle;rounded=0;orthogonalLoop=1;jettySize=auto;html=1;" parent="1" source="SUs-a6CJwETZ14rcJxrB-4" target="SUs-a6CJwETZ14rcJxrB-6" edge="1">
          <mxGeometry relative="1" as="geometry" />
        </mxCell>
        <mxCell id="SUs-a6CJwETZ14rcJxrB-4" value="调用resize，可以初始化table" style="rounded=0;whiteSpace=wrap;html=1;" parent="1" vertex="1">
          <mxGeometry x="252" y="260" width="110" height="50" as="geometry" />
        </mxCell>
        <mxCell id="SUs-a6CJwETZ14rcJxrB-11" value="" style="edgeStyle=orthogonalEdgeStyle;rounded=0;orthogonalLoop=1;jettySize=auto;html=1;" parent="1" source="SUs-a6CJwETZ14rcJxrB-6" target="SUs-a6CJwETZ14rcJxrB-10" edge="1">
          <mxGeometry relative="1" as="geometry" />
        </mxCell>
        <mxCell id="SUs-a6CJwETZ14rcJxrB-6" value="计算key的hash值 i" style="rounded=0;whiteSpace=wrap;html=1;" parent="1" vertex="1">
          <mxGeometry x="243" y="380" width="128" height="40" as="geometry" />
        </mxCell>
        <mxCell id="SUs-a6CJwETZ14rcJxrB-14" value="&lt;font style=&quot;font-size: 12px&quot;&gt;Y&lt;/font&gt;" style="edgeStyle=orthogonalEdgeStyle;rounded=0;orthogonalLoop=1;jettySize=auto;html=1;" parent="1" source="SUs-a6CJwETZ14rcJxrB-10" target="SUs-a6CJwETZ14rcJxrB-13" edge="1">
          <mxGeometry relative="1" as="geometry" />
        </mxCell>
        <mxCell id="SUs-a6CJwETZ14rcJxrB-16" value="" style="edgeStyle=orthogonalEdgeStyle;rounded=0;orthogonalLoop=1;jettySize=auto;html=1;" parent="1" source="SUs-a6CJwETZ14rcJxrB-10" edge="1">
          <mxGeometry relative="1" as="geometry">
            <mxPoint x="307" y="610" as="targetPoint" />
          </mxGeometry>
        </mxCell>
        <mxCell id="SUs-a6CJwETZ14rcJxrB-17" value="N" style="text;html=1;align=center;verticalAlign=middle;resizable=0;points=[];;labelBackgroundColor=#ffffff;" parent="SUs-a6CJwETZ14rcJxrB-16" vertex="1" connectable="0">
          <mxGeometry x="-0.12" relative="1" as="geometry">
            <mxPoint as="offset" />
          </mxGeometry>
        </mxCell>
        <mxCell id="SUs-a6CJwETZ14rcJxrB-10" value="槽 ( table[ i ] ) 空？" style="rhombus;whiteSpace=wrap;html=1;" parent="1" vertex="1">
          <mxGeometry x="234.5" y="480" width="145" height="60" as="geometry" />
        </mxCell>
        <mxCell id="SUs-a6CJwETZ14rcJxrB-13" value="table[ i ] = new Node" style="rounded=0;whiteSpace=wrap;html=1;" parent="1" vertex="1">
          <mxGeometry x="467" y="490" width="128" height="40" as="geometry" />
        </mxCell>
        <mxCell id="SUs-a6CJwETZ14rcJxrB-22" value="&lt;font style=&quot;font-size: 12px&quot;&gt;Y&lt;/font&gt;" style="edgeStyle=orthogonalEdgeStyle;rounded=0;orthogonalLoop=1;jettySize=auto;html=1;entryX=0;entryY=0.5;entryDx=0;entryDy=0;" parent="1" source="SUs-a6CJwETZ14rcJxrB-18" target="SUs-a6CJwETZ14rcJxrB-20" edge="1">
          <mxGeometry relative="1" as="geometry">
            <mxPoint x="448.5" y="655" as="targetPoint" />
          </mxGeometry>
        </mxCell>
        <mxCell id="SUs-a6CJwETZ14rcJxrB-24" value="&lt;font style=&quot;font-size: 12px&quot;&gt;N&lt;/font&gt;" style="edgeStyle=orthogonalEdgeStyle;rounded=0;orthogonalLoop=1;jettySize=auto;html=1;entryX=0.5;entryY=0;entryDx=0;entryDy=0;" parent="1" source="SUs-a6CJwETZ14rcJxrB-18" target="SUs-a6CJwETZ14rcJxrB-26" edge="1">
          <mxGeometry relative="1" as="geometry">
            <mxPoint x="307" y="790" as="targetPoint" />
          </mxGeometry>
        </mxCell>
        <mxCell id="SUs-a6CJwETZ14rcJxrB-18" value="判断 table[ i ] 和当前key相同？" style="rhombus;whiteSpace=wrap;html=1;" parent="1" vertex="1">
          <mxGeometry x="245.5" y="610" width="123" height="90" as="geometry" />
        </mxCell>
        <mxCell id="SUs-a6CJwETZ14rcJxrB-20" value="e = p = table[ i ]" style="rounded=0;whiteSpace=wrap;html=1;" parent="1" vertex="1">
          <mxGeometry x="467" y="635" width="128" height="40" as="geometry" />
        </mxCell>
        <mxCell id="SUs-a6CJwETZ14rcJxrB-29" value="" style="edgeStyle=orthogonalEdgeStyle;rounded=0;orthogonalLoop=1;jettySize=auto;html=1;entryX=0;entryY=0.5;entryDx=0;entryDy=0;" parent="1" source="SUs-a6CJwETZ14rcJxrB-26" target="SUs-a6CJwETZ14rcJxrB-27" edge="1">
          <mxGeometry relative="1" as="geometry">
            <mxPoint x="453" y="840" as="targetPoint" />
          </mxGeometry>
        </mxCell>
        <mxCell id="SUs-a6CJwETZ14rcJxrB-30" value="Y" style="text;html=1;align=center;verticalAlign=middle;resizable=0;points=[];;labelBackgroundColor=#ffffff;" parent="SUs-a6CJwETZ14rcJxrB-29" vertex="1" connectable="0">
          <mxGeometry x="0.1064" y="-1" relative="1" as="geometry">
            <mxPoint as="offset" />
          </mxGeometry>
        </mxCell>
        <mxCell id="SUs-a6CJwETZ14rcJxrB-32" value="" style="edgeStyle=orthogonalEdgeStyle;rounded=0;orthogonalLoop=1;jettySize=auto;html=1;entryX=0.25;entryY=0;entryDx=0;entryDy=0;" parent="1" source="SUs-a6CJwETZ14rcJxrB-26" target="SUs-a6CJwETZ14rcJxrB-38" edge="1">
          <mxGeometry relative="1" as="geometry">
            <mxPoint x="307" y="960" as="targetPoint" />
            <Array as="points" />
          </mxGeometry>
        </mxCell>
        <mxCell id="SUs-a6CJwETZ14rcJxrB-33" value="N" style="text;html=1;align=center;verticalAlign=middle;resizable=0;points=[];;labelBackgroundColor=#ffffff;" parent="SUs-a6CJwETZ14rcJxrB-32" vertex="1" connectable="0">
          <mxGeometry x="-0.1143" relative="1" as="geometry">
            <mxPoint as="offset" />
          </mxGeometry>
        </mxCell>
        <mxCell id="SUs-a6CJwETZ14rcJxrB-26" value="当前节点是树节点？" style="rhombus;whiteSpace=wrap;html=1;" parent="1" vertex="1">
          <mxGeometry x="241" y="790" width="132" height="100" as="geometry" />
        </mxCell>
        <mxCell id="SUs-a6CJwETZ14rcJxrB-27" value="把该节点添加到树中" style="rounded=0;whiteSpace=wrap;html=1;" parent="1" vertex="1">
          <mxGeometry x="467" y="820" width="128" height="40" as="geometry" />
        </mxCell>
        <mxCell id="SUs-a6CJwETZ14rcJxrB-35" value="此时已经说明这个节点是链表节点" style="text;html=1;strokeColor=none;fillColor=none;align=center;verticalAlign=middle;whiteSpace=wrap;rounded=0;dashed=1;" parent="1" vertex="1">
          <mxGeometry x="190" y="910" width="102" height="30" as="geometry" />
        </mxCell>
        <mxCell id="SUs-a6CJwETZ14rcJxrB-68" style="edgeStyle=orthogonalEdgeStyle;rounded=0;orthogonalLoop=1;jettySize=auto;html=1;exitX=0.25;exitY=1;exitDx=0;exitDy=0;entryX=0.5;entryY=0;entryDx=0;entryDy=0;" parent="1" source="SUs-a6CJwETZ14rcJxrB-38" target="SUs-a6CJwETZ14rcJxrB-67" edge="1">
          <mxGeometry relative="1" as="geometry" />
        </mxCell>
        <mxCell id="SUs-a6CJwETZ14rcJxrB-45" style="edgeStyle=orthogonalEdgeStyle;rounded=0;orthogonalLoop=1;jettySize=auto;html=1;exitX=0.5;exitY=1;exitDx=0;exitDy=0;entryX=0.5;entryY=0;entryDx=0;entryDy=0;" parent="1" source="SUs-a6CJwETZ14rcJxrB-41" target="SUs-a6CJwETZ14rcJxrB-44" edge="1">
          <mxGeometry relative="1" as="geometry" />
        </mxCell>
        <mxCell id="SUs-a6CJwETZ14rcJxrB-41" value="当前节点table[ i ]" style="rounded=0;whiteSpace=wrap;html=1;strokeColor=#000000;fillColor=none;" parent="1" vertex="1">
          <mxGeometry x="259" y="990" width="96" height="30" as="geometry" />
        </mxCell>
        <mxCell id="SUs-a6CJwETZ14rcJxrB-49" value="" style="edgeStyle=orthogonalEdgeStyle;rounded=0;orthogonalLoop=1;jettySize=auto;html=1;" parent="1" source="SUs-a6CJwETZ14rcJxrB-44" target="SUs-a6CJwETZ14rcJxrB-48" edge="1">
          <mxGeometry relative="1" as="geometry" />
        </mxCell>
        <mxCell id="SUs-a6CJwETZ14rcJxrB-50" value="N" style="text;html=1;align=center;verticalAlign=middle;resizable=0;points=[];;labelBackgroundColor=#ffffff;" parent="SUs-a6CJwETZ14rcJxrB-49" vertex="1" connectable="0">
          <mxGeometry x="-0.1714" y="1" relative="1" as="geometry">
            <mxPoint as="offset" />
          </mxGeometry>
        </mxCell>
        <mxCell id="SUs-a6CJwETZ14rcJxrB-44" value="有后继节点？" style="rhombus;whiteSpace=wrap;html=1;" parent="1" vertex="1">
          <mxGeometry x="244" y="1060" width="126" height="70" as="geometry" />
        </mxCell>
        <mxCell id="SUs-a6CJwETZ14rcJxrB-65" value="" style="edgeStyle=orthogonalEdgeStyle;rounded=0;orthogonalLoop=1;jettySize=auto;html=1;entryX=0.25;entryY=0;entryDx=0;entryDy=0;" parent="1" source="SUs-a6CJwETZ14rcJxrB-48" target="SUs-a6CJwETZ14rcJxrB-64" edge="1">
          <mxGeometry relative="1" as="geometry" />
        </mxCell>
        <mxCell id="SUs-a6CJwETZ14rcJxrB-48" value="创建新的Node作为后继节点" style="rounded=0;whiteSpace=wrap;html=1;strokeColor=#000000;fillColor=none;" parent="1" vertex="1">
          <mxGeometry x="247" y="1200" width="120" height="60" as="geometry" />
        </mxCell>
        <mxCell id="SUs-a6CJwETZ14rcJxrB-54" value="" style="edgeStyle=orthogonalEdgeStyle;rounded=0;orthogonalLoop=1;jettySize=auto;html=1;entryX=0;entryY=0.5;entryDx=0;entryDy=0;" parent="1" source="SUs-a6CJwETZ14rcJxrB-51" target="SUs-a6CJwETZ14rcJxrB-55" edge="1">
          <mxGeometry relative="1" as="geometry">
            <mxPoint x="450" y="1375" as="targetPoint" />
          </mxGeometry>
        </mxCell>
        <mxCell id="SUs-a6CJwETZ14rcJxrB-56" value="Y" style="text;html=1;align=center;verticalAlign=middle;resizable=0;points=[];;labelBackgroundColor=#ffffff;" parent="SUs-a6CJwETZ14rcJxrB-54" vertex="1" connectable="0">
          <mxGeometry x="-0.2459" y="1" relative="1" as="geometry">
            <mxPoint as="offset" />
          </mxGeometry>
        </mxCell>
        <mxCell id="SUs-a6CJwETZ14rcJxrB-51" value="节点树大于7" style="rhombus;whiteSpace=wrap;html=1;" parent="1" vertex="1">
          <mxGeometry x="244" y="1340" width="126" height="70" as="geometry" />
        </mxCell>
        <mxCell id="SUs-a6CJwETZ14rcJxrB-55" value="转成红黑树" style="rounded=0;whiteSpace=wrap;html=1;strokeColor=#000000;fillColor=none;" parent="1" vertex="1">
          <mxGeometry x="431" y="1357.5" width="100" height="35" as="geometry" />
        </mxCell>
        <mxCell id="SUs-a6CJwETZ14rcJxrB-80" style="edgeStyle=orthogonalEdgeStyle;rounded=0;orthogonalLoop=1;jettySize=auto;html=1;exitX=0.5;exitY=1;exitDx=0;exitDy=0;entryX=0.249;entryY=0.955;entryDx=0;entryDy=0;entryPerimeter=0;" parent="1" source="SUs-a6CJwETZ14rcJxrB-61" edge="1">
          <mxGeometry relative="1" as="geometry">
            <mxPoint x="307" y="1546" as="targetPoint" />
          </mxGeometry>
        </mxCell>
        <mxCell id="SUs-a6CJwETZ14rcJxrB-84" value="Y" style="text;html=1;align=center;verticalAlign=middle;resizable=0;points=[];;labelBackgroundColor=#ffffff;" parent="SUs-a6CJwETZ14rcJxrB-80" vertex="1" connectable="0">
          <mxGeometry x="-0.2" relative="1" as="geometry">
            <mxPoint as="offset" />
          </mxGeometry>
        </mxCell>
        <mxCell id="SUs-a6CJwETZ14rcJxrB-61" value="找到当前key？" style="rhombus;whiteSpace=wrap;html=1;" parent="1" vertex="1">
          <mxGeometry x="244" y="1441" width="126" height="70" as="geometry" />
        </mxCell>
        <mxCell id="SUs-a6CJwETZ14rcJxrB-70" value="" style="edgeStyle=orthogonalEdgeStyle;rounded=0;orthogonalLoop=1;jettySize=auto;html=1;entryX=0;entryY=0.5;entryDx=0;entryDy=0;" parent="1" source="SUs-a6CJwETZ14rcJxrB-67" target="SUs-a6CJwETZ14rcJxrB-71" edge="1">
          <mxGeometry relative="1" as="geometry">
            <mxPoint x="467" y="1645" as="targetPoint" />
          </mxGeometry>
        </mxCell>
        <mxCell id="SUs-a6CJwETZ14rcJxrB-73" value="" style="edgeStyle=orthogonalEdgeStyle;rounded=0;orthogonalLoop=1;jettySize=auto;html=1;entryX=0.5;entryY=0;entryDx=0;entryDy=0;" parent="1" source="SUs-a6CJwETZ14rcJxrB-67" target="SUs-a6CJwETZ14rcJxrB-74" edge="1">
          <mxGeometry relative="1" as="geometry">
            <mxPoint x="307" y="1770" as="targetPoint" />
          </mxGeometry>
        </mxCell>
        <mxCell id="SUs-a6CJwETZ14rcJxrB-75" value="N" style="text;html=1;align=center;verticalAlign=middle;resizable=0;points=[];;labelBackgroundColor=#ffffff;" parent="SUs-a6CJwETZ14rcJxrB-73" vertex="1" connectable="0">
          <mxGeometry x="-0.012" relative="1" as="geometry">
            <mxPoint as="offset" />
          </mxGeometry>
        </mxCell>
        <mxCell id="SUs-a6CJwETZ14rcJxrB-67" value="是否需要扩容？" style="rhombus;whiteSpace=wrap;html=1;strokeColor=#000000;fillColor=none;" parent="1" vertex="1">
          <mxGeometry x="227" y="1600" width="160" height="90" as="geometry" />
        </mxCell>
        <mxCell id="SUs-a6CJwETZ14rcJxrB-76" style="edgeStyle=orthogonalEdgeStyle;rounded=0;orthogonalLoop=1;jettySize=auto;html=1;exitX=1;exitY=0.5;exitDx=0;exitDy=0;entryX=1;entryY=0.5;entryDx=0;entryDy=0;" parent="1" source="SUs-a6CJwETZ14rcJxrB-71" target="SUs-a6CJwETZ14rcJxrB-74" edge="1">
          <mxGeometry relative="1" as="geometry" />
        </mxCell>
        <mxCell id="SUs-a6CJwETZ14rcJxrB-71" value="扩容" style="rounded=0;whiteSpace=wrap;html=1;strokeColor=#000000;fillColor=none;" parent="1" vertex="1">
          <mxGeometry x="481" y="1615" width="120" height="60" as="geometry" />
        </mxCell>
        <mxCell id="SUs-a6CJwETZ14rcJxrB-74" value="结束" style="rounded=0;whiteSpace=wrap;html=1;strokeColor=#000000;fillColor=none;" parent="1" vertex="1">
          <mxGeometry x="246.5" y="1773" width="120" height="60" as="geometry" />
        </mxCell>
        <mxCell id="SUs-a6CJwETZ14rcJxrB-82" value="链表循环" style="text;html=1;align=center;verticalAlign=middle;resizable=0;points=[];;autosize=1;" parent="1" vertex="1">
          <mxGeometry x="552" y="955" width="60" height="20" as="geometry" />
        </mxCell>
        <mxCell id="SUs-a6CJwETZ14rcJxrB-85" value="&lt;h1&gt;PUT&lt;/h1&gt;&lt;p&gt;Lorem ipsum dolor sit amet, consectetur adipisicing elit, sed do eiusmod tempor incididunt ut labore et dolore magna aliqua.&lt;/p&gt;" style="text;html=1;strokeColor=none;fillColor=none;spacing=5;spacingTop=-20;whiteSpace=wrap;overflow=hidden;rounded=0;" parent="1" vertex="1">
          <mxGeometry x="436" y="120" width="190" height="120" as="geometry" />
        </mxCell>
        <mxCell id="SUs-a6CJwETZ14rcJxrB-89" value="" style="edgeStyle=orthogonalEdgeStyle;rounded=0;orthogonalLoop=1;jettySize=auto;html=1;entryX=0.5;entryY=0;entryDx=0;entryDy=0;" parent="1" source="SUs-a6CJwETZ14rcJxrB-86" target="SUs-a6CJwETZ14rcJxrB-90" edge="1">
          <mxGeometry relative="1" as="geometry">
            <mxPoint x="1194" y="205" as="targetPoint" />
          </mxGeometry>
        </mxCell>
        <mxCell id="SUs-a6CJwETZ14rcJxrB-86" value="Get" style="rounded=0;whiteSpace=wrap;html=1;strokeColor=#000000;fillColor=none;" parent="1" vertex="1">
          <mxGeometry x="1134" y="75" width="120" height="60" as="geometry" />
        </mxCell>
        <mxCell id="SUs-a6CJwETZ14rcJxrB-92" value="" style="edgeStyle=orthogonalEdgeStyle;rounded=0;orthogonalLoop=1;jettySize=auto;html=1;entryX=0;entryY=0.5;entryDx=0;entryDy=0;" parent="1" source="SUs-a6CJwETZ14rcJxrB-90" target="SUs-a6CJwETZ14rcJxrB-93" edge="1">
          <mxGeometry relative="1" as="geometry">
            <mxPoint x="1356.5" y="250" as="targetPoint" />
          </mxGeometry>
        </mxCell>
        <mxCell id="SUs-a6CJwETZ14rcJxrB-94" value="否" style="text;html=1;align=center;verticalAlign=middle;resizable=0;points=[];;labelBackgroundColor=#ffffff;" parent="SUs-a6CJwETZ14rcJxrB-92" vertex="1" connectable="0">
          <mxGeometry x="-0.0514" y="3" relative="1" as="geometry">
            <mxPoint as="offset" />
          </mxGeometry>
        </mxCell>
        <mxCell id="SUs-a6CJwETZ14rcJxrB-98" value="" style="edgeStyle=orthogonalEdgeStyle;rounded=0;orthogonalLoop=1;jettySize=auto;html=1;" parent="1" source="SUs-a6CJwETZ14rcJxrB-90" target="SUs-a6CJwETZ14rcJxrB-97" edge="1">
          <mxGeometry relative="1" as="geometry" />
        </mxCell>
        <mxCell id="SUs-a6CJwETZ14rcJxrB-90" value="table为空？&amp;amp;&amp;amp; 要查找的槽不空？" style="rhombus;whiteSpace=wrap;html=1;" parent="1" vertex="1">
          <mxGeometry x="1111.5" y="200" width="165" height="100" as="geometry" />
        </mxCell>
        <mxCell id="SUs-a6CJwETZ14rcJxrB-101" value="" style="edgeStyle=orthogonalEdgeStyle;rounded=0;orthogonalLoop=1;jettySize=auto;html=1;entryX=0;entryY=0.5;entryDx=0;entryDy=0;" parent="1" source="SUs-a6CJwETZ14rcJxrB-97" target="SUs-a6CJwETZ14rcJxrB-99" edge="1">
          <mxGeometry relative="1" as="geometry">
            <mxPoint x="1356.5" y="430" as="targetPoint" />
          </mxGeometry>
        </mxCell>
        <mxCell id="SUs-a6CJwETZ14rcJxrB-102" value="Y" style="text;html=1;align=center;verticalAlign=middle;resizable=0;points=[];;labelBackgroundColor=#ffffff;" parent="SUs-a6CJwETZ14rcJxrB-101" vertex="1" connectable="0">
          <mxGeometry x="-0.0743" relative="1" as="geometry">
            <mxPoint x="1" as="offset" />
          </mxGeometry>
        </mxCell>
        <mxCell id="SUs-a6CJwETZ14rcJxrB-107" value="" style="edgeStyle=orthogonalEdgeStyle;rounded=0;orthogonalLoop=1;jettySize=auto;html=1;" parent="1" source="SUs-a6CJwETZ14rcJxrB-97" target="SUs-a6CJwETZ14rcJxrB-106" edge="1">
          <mxGeometry relative="1" as="geometry" />
        </mxCell>
        <mxCell id="SUs-a6CJwETZ14rcJxrB-108" value="N" style="text;html=1;align=center;verticalAlign=middle;resizable=0;points=[];;labelBackgroundColor=#ffffff;" parent="SUs-a6CJwETZ14rcJxrB-107" vertex="1" connectable="0">
          <mxGeometry x="-0.05" y="1" relative="1" as="geometry">
            <mxPoint as="offset" />
          </mxGeometry>
        </mxCell>
        <mxCell id="SUs-a6CJwETZ14rcJxrB-97" value="第一个节点是要查找的key？" style="rhombus;whiteSpace=wrap;html=1;" parent="1" vertex="1">
          <mxGeometry x="1111.5" y="380" width="165" height="100" as="geometry" />
        </mxCell>
        <mxCell id="SUs-a6CJwETZ14rcJxrB-110" value="" style="edgeStyle=orthogonalEdgeStyle;rounded=0;orthogonalLoop=1;jettySize=auto;html=1;entryX=0;entryY=0.5;entryDx=0;entryDy=0;" parent="1" source="SUs-a6CJwETZ14rcJxrB-106" target="SUs-a6CJwETZ14rcJxrB-111" edge="1">
          <mxGeometry relative="1" as="geometry">
            <mxPoint x="1356.5" y="610" as="targetPoint" />
          </mxGeometry>
        </mxCell>
        <mxCell id="SUs-a6CJwETZ14rcJxrB-114" value="Y" style="text;html=1;align=center;verticalAlign=middle;resizable=0;points=[];;labelBackgroundColor=#ffffff;" parent="SUs-a6CJwETZ14rcJxrB-110" vertex="1" connectable="0">
          <mxGeometry x="-0.0286" y="1" relative="1" as="geometry">
            <mxPoint x="1" as="offset" />
          </mxGeometry>
        </mxCell>
        <mxCell id="SUs-a6CJwETZ14rcJxrB-113" value="" style="edgeStyle=orthogonalEdgeStyle;rounded=0;orthogonalLoop=1;jettySize=auto;html=1;" parent="1" source="SUs-a6CJwETZ14rcJxrB-106" target="SUs-a6CJwETZ14rcJxrB-112" edge="1">
          <mxGeometry relative="1" as="geometry" />
        </mxCell>
        <mxCell id="SUs-a6CJwETZ14rcJxrB-115" value="N" style="text;html=1;align=center;verticalAlign=middle;resizable=0;points=[];;labelBackgroundColor=#ffffff;" parent="SUs-a6CJwETZ14rcJxrB-113" vertex="1" connectable="0">
          <mxGeometry x="0.0667" y="1" relative="1" as="geometry">
            <mxPoint as="offset" />
          </mxGeometry>
        </mxCell>
        <mxCell id="SUs-a6CJwETZ14rcJxrB-106" value="是树节点？" style="rhombus;whiteSpace=wrap;html=1;" parent="1" vertex="1">
          <mxGeometry x="1111.5" y="560" width="165" height="100" as="geometry" />
        </mxCell>
        <mxCell id="SUs-a6CJwETZ14rcJxrB-119" style="edgeStyle=orthogonalEdgeStyle;rounded=0;orthogonalLoop=1;jettySize=auto;html=1;exitX=1;exitY=0.5;exitDx=0;exitDy=0;entryX=0;entryY=0.5;entryDx=0;entryDy=0;" parent="1" source="SUs-a6CJwETZ14rcJxrB-93" target="SUs-a6CJwETZ14rcJxrB-116" edge="1">
          <mxGeometry relative="1" as="geometry" />
        </mxCell>
        <mxCell id="SUs-a6CJwETZ14rcJxrB-93" value="返回 null" style="rounded=0;whiteSpace=wrap;html=1;strokeColor=#000000;fillColor=none;direction=west;" parent="1" vertex="1">
          <mxGeometry x="924" y="220" width="120" height="60" as="geometry" />
        </mxCell>
        <mxCell id="SUs-a6CJwETZ14rcJxrB-99" value="返回该节点" style="rounded=0;whiteSpace=wrap;html=1;strokeColor=#000000;fillColor=none;" parent="1" vertex="1">
          <mxGeometry x="1364" y="400" width="120" height="60" as="geometry" />
        </mxCell>
        <mxCell id="SUs-a6CJwETZ14rcJxrB-118" style="edgeStyle=orthogonalEdgeStyle;rounded=0;orthogonalLoop=1;jettySize=auto;html=1;exitX=0.5;exitY=1;exitDx=0;exitDy=0;entryX=1;entryY=0.5;entryDx=0;entryDy=0;" parent="1" source="SUs-a6CJwETZ14rcJxrB-111" target="SUs-a6CJwETZ14rcJxrB-116" edge="1">
          <mxGeometry relative="1" as="geometry" />
        </mxCell>
        <mxCell id="SUs-a6CJwETZ14rcJxrB-111" value="从树中查找" style="rounded=0;whiteSpace=wrap;html=1;strokeColor=#000000;fillColor=none;" parent="1" vertex="1">
          <mxGeometry x="1364" y="580" width="120" height="60" as="geometry" />
        </mxCell>
        <mxCell id="SUs-a6CJwETZ14rcJxrB-117" value="" style="edgeStyle=orthogonalEdgeStyle;rounded=0;orthogonalLoop=1;jettySize=auto;html=1;" parent="1" source="SUs-a6CJwETZ14rcJxrB-112" target="SUs-a6CJwETZ14rcJxrB-116" edge="1">
          <mxGeometry relative="1" as="geometry" />
        </mxCell>
        <mxCell id="SUs-a6CJwETZ14rcJxrB-112" value="从链表中查找" style="rounded=0;whiteSpace=wrap;html=1;strokeColor=#000000;fillColor=none;" parent="1" vertex="1">
          <mxGeometry x="1134" y="735" width="120" height="60" as="geometry" />
        </mxCell>
        <mxCell id="SUs-a6CJwETZ14rcJxrB-116" value="返回该节点" style="rounded=0;whiteSpace=wrap;html=1;strokeColor=#000000;fillColor=none;" parent="1" vertex="1">
          <mxGeometry x="1134" y="865" width="120" height="60" as="geometry" />
        </mxCell>
        <mxCell id="SUs-a6CJwETZ14rcJxrB-120" value="&lt;h1&gt;GET&lt;/h1&gt;&lt;p&gt;Lorem ipsum dolor sit amet, consectetur adipisicing elit, sed do eiusmod tempor incididunt ut labore et dolore magna aliqua.&lt;/p&gt;" style="text;html=1;strokeColor=none;fillColor=none;spacing=5;spacingTop=-20;whiteSpace=wrap;overflow=hidden;rounded=0;" parent="1" vertex="1">
          <mxGeometry x="1384" y="130" width="190" height="120" as="geometry" />
        </mxCell>
      </root>
    </mxGraphModel>
  </diagram>
  <diagram id="DOdSb6P0M9hW4kKyrQym" name="redis">
    <mxGraphModel dx="1426" dy="794" grid="1" gridSize="10" guides="1" tooltips="1" connect="1" arrows="1" fold="1" page="1" pageScale="1" pageWidth="827" pageHeight="1169" math="0" shadow="0">
      <root>
        <mxCell id="0TNZmhgyUfplJbigOLq0-0" />
        <mxCell id="0TNZmhgyUfplJbigOLq0-1" parent="0TNZmhgyUfplJbigOLq0-0" />
        <mxCell id="tI_J-xMjgccO3zqzPGwz-0" value="&lt;h1&gt;Redis&lt;/h1&gt;&lt;div&gt;redis 是个好东西&lt;/div&gt;&lt;div&gt;哈哈&lt;/div&gt;" style="text;html=1;strokeColor=none;fillColor=none;spacing=5;spacingTop=-20;whiteSpace=wrap;overflow=hidden;rounded=0;" vertex="1" parent="0TNZmhgyUfplJbigOLq0-1">
          <mxGeometry x="40" y="40" width="190" height="120" as="geometry" />
        </mxCell>
      </root>
    </mxGraphModel>
  </diagram>
  <diagram id="m4dCJrsXMs-Vm5KJ45Bz" name="mybatis">
    <mxGraphModel dx="2253" dy="1963" grid="1" gridSize="10" guides="1" tooltips="1" connect="1" arrows="1" fold="1" page="1" pageScale="1" pageWidth="827" pageHeight="1169" math="0" shadow="0">
      <root>
        <mxCell id="-klciIg0drIU8GvIkF-E-0" />
        <mxCell id="-klciIg0drIU8GvIkF-E-1" parent="-klciIg0drIU8GvIkF-E-0" />
        <mxCell id="-klciIg0drIU8GvIkF-E-4" value="" style="edgeStyle=orthogonalEdgeStyle;rounded=0;orthogonalLoop=1;jettySize=auto;html=1;" parent="-klciIg0drIU8GvIkF-E-1" source="-klciIg0drIU8GvIkF-E-2" target="-klciIg0drIU8GvIkF-E-3" edge="1">
          <mxGeometry relative="1" as="geometry" />
        </mxCell>
        <mxCell id="-klciIg0drIU8GvIkF-E-25" value="实现" style="text;html=1;align=center;verticalAlign=middle;resizable=0;points=[];;labelBackgroundColor=#ffffff;" parent="-klciIg0drIU8GvIkF-E-4" vertex="1" connectable="0">
          <mxGeometry x="0.05" y="2" relative="1" as="geometry">
            <mxPoint as="offset" />
          </mxGeometry>
        </mxCell>
        <mxCell id="-klciIg0drIU8GvIkF-E-2" value="Base&lt;br&gt;Executor" style="rounded=0;whiteSpace=wrap;html=1;" parent="-klciIg0drIU8GvIkF-E-1" vertex="1">
          <mxGeometry x="-310" y="-940" width="120" height="60" as="geometry" />
        </mxCell>
        <mxCell id="-klciIg0drIU8GvIkF-E-3" value="Excutor" style="rounded=0;whiteSpace=wrap;html=1;" parent="-klciIg0drIU8GvIkF-E-1" vertex="1">
          <mxGeometry x="-310" y="-1080" width="120" height="60" as="geometry" />
        </mxCell>
        <mxCell id="-klciIg0drIU8GvIkF-E-26" style="edgeStyle=orthogonalEdgeStyle;rounded=0;orthogonalLoop=1;jettySize=auto;html=1;exitX=0.5;exitY=0;exitDx=0;exitDy=0;entryX=0;entryY=0.5;entryDx=0;entryDy=0;" parent="-klciIg0drIU8GvIkF-E-1" source="-klciIg0drIU8GvIkF-E-6" target="-klciIg0drIU8GvIkF-E-3" edge="1">
          <mxGeometry relative="1" as="geometry" />
        </mxCell>
        <mxCell id="-klciIg0drIU8GvIkF-E-27" value="实现" style="text;html=1;align=center;verticalAlign=middle;resizable=0;points=[];;labelBackgroundColor=#ffffff;" parent="-klciIg0drIU8GvIkF-E-26" vertex="1" connectable="0">
          <mxGeometry x="-0.1667" y="-46" relative="1" as="geometry">
            <mxPoint x="46" y="-47" as="offset" />
          </mxGeometry>
        </mxCell>
        <mxCell id="-klciIg0drIU8GvIkF-E-6" value="Caching&lt;br&gt;Executor" style="rounded=0;whiteSpace=wrap;html=1;" parent="-klciIg0drIU8GvIkF-E-1" vertex="1">
          <mxGeometry x="-520" y="-950" width="140" height="80" as="geometry" />
        </mxCell>
        <mxCell id="-klciIg0drIU8GvIkF-E-8" style="edgeStyle=orthogonalEdgeStyle;rounded=0;orthogonalLoop=1;jettySize=auto;html=1;exitX=1;exitY=0.5;exitDx=0;exitDy=0;entryX=0;entryY=0.5;entryDx=0;entryDy=0;" parent="-klciIg0drIU8GvIkF-E-1" source="-klciIg0drIU8GvIkF-E-7" target="-klciIg0drIU8GvIkF-E-2" edge="1">
          <mxGeometry relative="1" as="geometry" />
        </mxCell>
        <mxCell id="-klciIg0drIU8GvIkF-E-7" value="delegate" style="rounded=0;whiteSpace=wrap;html=1;" parent="-klciIg0drIU8GvIkF-E-1" vertex="1">
          <mxGeometry x="-440" y="-890" width="60" height="20" as="geometry" />
        </mxCell>
        <mxCell id="-klciIg0drIU8GvIkF-E-11" value="二级缓存" style="text;html=1;strokeColor=none;fillColor=none;align=center;verticalAlign=middle;whiteSpace=wrap;rounded=0;" parent="-klciIg0drIU8GvIkF-E-1" vertex="1">
          <mxGeometry x="-530" y="-970" width="70" height="20" as="geometry" />
        </mxCell>
        <mxCell id="-klciIg0drIU8GvIkF-E-12" value="一级缓存" style="text;html=1;strokeColor=none;fillColor=none;align=center;verticalAlign=middle;whiteSpace=wrap;rounded=0;" parent="-klciIg0drIU8GvIkF-E-1" vertex="1">
          <mxGeometry x="-240" y="-960" width="70" height="20" as="geometry" />
        </mxCell>
        <mxCell id="-klciIg0drIU8GvIkF-E-14" style="rounded=0;orthogonalLoop=1;jettySize=auto;html=1;exitX=0.5;exitY=0;exitDx=0;exitDy=0;entryX=0.5;entryY=1;entryDx=0;entryDy=0;" parent="-klciIg0drIU8GvIkF-E-1" source="-klciIg0drIU8GvIkF-E-13" target="-klciIg0drIU8GvIkF-E-2" edge="1">
          <mxGeometry relative="1" as="geometry" />
        </mxCell>
        <mxCell id="-klciIg0drIU8GvIkF-E-24" value="继承" style="text;html=1;align=center;verticalAlign=middle;resizable=0;points=[];;labelBackgroundColor=#ffffff;" parent="-klciIg0drIU8GvIkF-E-14" vertex="1" connectable="0">
          <mxGeometry x="-0.0662" y="4" relative="1" as="geometry">
            <mxPoint as="offset" />
          </mxGeometry>
        </mxCell>
        <mxCell id="-klciIg0drIU8GvIkF-E-13" value="Simple&lt;br&gt;Executor" style="rounded=0;whiteSpace=wrap;html=1;" parent="-klciIg0drIU8GvIkF-E-1" vertex="1">
          <mxGeometry x="-520" y="-750" width="120" height="60" as="geometry" />
        </mxCell>
        <mxCell id="-klciIg0drIU8GvIkF-E-20" style="edgeStyle=none;rounded=0;orthogonalLoop=1;jettySize=auto;html=1;exitX=0.5;exitY=0;exitDx=0;exitDy=0;" parent="-klciIg0drIU8GvIkF-E-1" source="-klciIg0drIU8GvIkF-E-15" target="-klciIg0drIU8GvIkF-E-2" edge="1">
          <mxGeometry relative="1" as="geometry" />
        </mxCell>
        <mxCell id="-klciIg0drIU8GvIkF-E-23" value="继承" style="text;html=1;align=center;verticalAlign=middle;resizable=0;points=[];;labelBackgroundColor=#ffffff;" parent="-klciIg0drIU8GvIkF-E-20" vertex="1" connectable="0">
          <mxGeometry x="-0.1538" y="1" relative="1" as="geometry">
            <mxPoint as="offset" />
          </mxGeometry>
        </mxCell>
        <mxCell id="-klciIg0drIU8GvIkF-E-15" value="Reuse&lt;br&gt;Executor" style="rounded=0;whiteSpace=wrap;html=1;" parent="-klciIg0drIU8GvIkF-E-1" vertex="1">
          <mxGeometry x="-310" y="-750" width="120" height="60" as="geometry" />
        </mxCell>
        <mxCell id="-klciIg0drIU8GvIkF-E-21" style="edgeStyle=none;rounded=0;orthogonalLoop=1;jettySize=auto;html=1;exitX=0.5;exitY=0;exitDx=0;exitDy=0;" parent="-klciIg0drIU8GvIkF-E-1" source="-klciIg0drIU8GvIkF-E-16" edge="1">
          <mxGeometry relative="1" as="geometry">
            <mxPoint x="-250" y="-880" as="targetPoint" />
          </mxGeometry>
        </mxCell>
        <mxCell id="-klciIg0drIU8GvIkF-E-22" value="继承" style="text;html=1;align=center;verticalAlign=middle;resizable=0;points=[];;labelBackgroundColor=#ffffff;" parent="-klciIg0drIU8GvIkF-E-21" vertex="1" connectable="0">
          <mxGeometry x="0.0551" y="2" relative="1" as="geometry">
            <mxPoint as="offset" />
          </mxGeometry>
        </mxCell>
        <mxCell id="-klciIg0drIU8GvIkF-E-16" value="Batch&lt;br&gt;Executor" style="rounded=0;whiteSpace=wrap;html=1;" parent="-klciIg0drIU8GvIkF-E-1" vertex="1">
          <mxGeometry x="-90" y="-750" width="120" height="60" as="geometry" />
        </mxCell>
        <mxCell id="-klciIg0drIU8GvIkF-E-28" value="" style="rounded=0;whiteSpace=wrap;html=1;opacity=70;dashed=1;strokeColor=#FF0000;strokeWidth=2;" parent="-klciIg0drIU8GvIkF-E-1" vertex="1">
          <mxGeometry x="-140" y="-980" width="250" height="130" as="geometry" />
        </mxCell>
        <mxCell id="-klciIg0drIU8GvIkF-E-31" value="" style="edgeStyle=orthogonalEdgeStyle;rounded=0;orthogonalLoop=1;jettySize=auto;html=1;" parent="-klciIg0drIU8GvIkF-E-1" source="-klciIg0drIU8GvIkF-E-29" target="-klciIg0drIU8GvIkF-E-30" edge="1">
          <mxGeometry relative="1" as="geometry" />
        </mxCell>
        <mxCell id="-klciIg0drIU8GvIkF-E-29" value="query" style="rounded=0;whiteSpace=wrap;html=1;" parent="-klciIg0drIU8GvIkF-E-1" vertex="1">
          <mxGeometry x="-120" y="-960" width="70" height="20" as="geometry" />
        </mxCell>
        <mxCell id="-klciIg0drIU8GvIkF-E-35" value="" style="edgeStyle=orthogonalEdgeStyle;rounded=0;orthogonalLoop=1;jettySize=auto;html=1;" parent="-klciIg0drIU8GvIkF-E-1" source="-klciIg0drIU8GvIkF-E-32" target="-klciIg0drIU8GvIkF-E-34" edge="1">
          <mxGeometry relative="1" as="geometry" />
        </mxCell>
        <mxCell id="-klciIg0drIU8GvIkF-E-32" value="update" style="rounded=0;whiteSpace=wrap;html=1;" parent="-klciIg0drIU8GvIkF-E-1" vertex="1">
          <mxGeometry x="-120" y="-900" width="70" height="20" as="geometry" />
        </mxCell>
        <mxCell id="-klciIg0drIU8GvIkF-E-34" value="doUpdate" style="rounded=0;whiteSpace=wrap;html=1;" parent="-klciIg0drIU8GvIkF-E-1" vertex="1">
          <mxGeometry x="30" y="-900" width="70" height="20" as="geometry" />
        </mxCell>
        <mxCell id="-klciIg0drIU8GvIkF-E-30" value="doQuery" style="rounded=0;whiteSpace=wrap;html=1;" parent="-klciIg0drIU8GvIkF-E-1" vertex="1">
          <mxGeometry x="30" y="-960" width="70" height="20" as="geometry" />
        </mxCell>
        <mxCell id="-klciIg0drIU8GvIkF-E-36" value="缓存维护、事务管理" style="text;html=1;strokeColor=none;fillColor=none;align=center;verticalAlign=middle;whiteSpace=wrap;rounded=0;" parent="-klciIg0drIU8GvIkF-E-1" vertex="1">
          <mxGeometry x="-140" y="-1000" width="160" height="20" as="geometry" />
        </mxCell>
        <mxCell id="-klciIg0drIU8GvIkF-E-38" style="edgeStyle=orthogonalEdgeStyle;rounded=0;orthogonalLoop=1;jettySize=auto;html=1;exitX=1;exitY=0.5;exitDx=0;exitDy=0;entryX=0;entryY=0.5;entryDx=0;entryDy=0;" parent="-klciIg0drIU8GvIkF-E-1" source="-klciIg0drIU8GvIkF-E-39" target="-klciIg0drIU8GvIkF-E-6" edge="1">
          <mxGeometry relative="1" as="geometry" />
        </mxCell>
        <mxCell id="-klciIg0drIU8GvIkF-E-37" value="SqlSession" style="rounded=0;whiteSpace=wrap;html=1;strokeColor=#000000;strokeWidth=1;opacity=70;" parent="-klciIg0drIU8GvIkF-E-1" vertex="1">
          <mxGeometry x="-720" y="-940" width="120" height="60" as="geometry" />
        </mxCell>
        <mxCell id="-klciIg0drIU8GvIkF-E-39" value="executor" style="rounded=0;whiteSpace=wrap;html=1;" parent="-klciIg0drIU8GvIkF-E-1" vertex="1">
          <mxGeometry x="-660" y="-900" width="60" height="20" as="geometry" />
        </mxCell>
        <mxCell id="-klciIg0drIU8GvIkF-E-40" value="每次访问都会创建一个预处理器（prepareStatement）" style="text;html=1;strokeColor=none;fillColor=none;align=center;verticalAlign=middle;whiteSpace=wrap;rounded=0;opacity=70;" parent="-klciIg0drIU8GvIkF-E-1" vertex="1">
          <mxGeometry x="-550" y="-690" width="160" height="50" as="geometry" />
        </mxCell>
        <mxCell id="-klciIg0drIU8GvIkF-E-41" value="相同的sql语句会使用&lt;br&gt;同一个Statement" style="text;html=1;align=center;verticalAlign=middle;resizable=0;points=[];;autosize=1;" parent="-klciIg0drIU8GvIkF-E-1" vertex="1">
          <mxGeometry x="-305" y="-680" width="130" height="30" as="geometry" />
        </mxCell>
        <mxCell id="-klciIg0drIU8GvIkF-E-42" value="批处理必须执行&lt;br&gt;flushStatements才会生效" style="text;html=1;align=center;verticalAlign=middle;resizable=0;points=[];;autosize=1;" parent="-klciIg0drIU8GvIkF-E-1" vertex="1">
          <mxGeometry x="-105" y="-680" width="150" height="30" as="geometry" />
        </mxCell>
      </root>
    </mxGraphModel>
  </diagram>
  <diagram id="dZBrMSs2NidEFrNWa69_" name="JMM">
    <mxGraphModel dx="1426" dy="794" grid="1" gridSize="10" guides="1" tooltips="1" connect="1" arrows="1" fold="1" page="1" pageScale="1" pageWidth="827" pageHeight="1169" math="0" shadow="0">
      <root>
        <mxCell id="CjpBEYz0WgQ5R8Ck3hoN-0" />
        <mxCell id="CjpBEYz0WgQ5R8Ck3hoN-1" parent="CjpBEYz0WgQ5R8Ck3hoN-0" />
        <mxCell id="CjpBEYz0WgQ5R8Ck3hoN-8" value="" style="edgeStyle=orthogonalEdgeStyle;rounded=0;orthogonalLoop=1;jettySize=auto;html=1;startArrow=classic;startFill=1;" parent="CjpBEYz0WgQ5R8Ck3hoN-1" source="CjpBEYz0WgQ5R8Ck3hoN-2" target="CjpBEYz0WgQ5R8Ck3hoN-7" edge="1">
          <mxGeometry relative="1" as="geometry" />
        </mxCell>
        <mxCell id="CjpBEYz0WgQ5R8Ck3hoN-2" value="线程1" style="rounded=0;whiteSpace=wrap;html=1;" parent="CjpBEYz0WgQ5R8Ck3hoN-1" vertex="1">
          <mxGeometry x="40" y="120" width="120" height="40" as="geometry" />
        </mxCell>
        <mxCell id="CjpBEYz0WgQ5R8Ck3hoN-16" style="edgeStyle=orthogonalEdgeStyle;rounded=0;orthogonalLoop=1;jettySize=auto;html=1;exitX=1;exitY=0.5;exitDx=0;exitDy=0;entryX=0;entryY=0.25;entryDx=0;entryDy=0;endArrow=classic;endFill=1;startArrow=classic;startFill=1;" parent="CjpBEYz0WgQ5R8Ck3hoN-1" source="CjpBEYz0WgQ5R8Ck3hoN-7" target="CjpBEYz0WgQ5R8Ck3hoN-15" edge="1">
          <mxGeometry relative="1" as="geometry" />
        </mxCell>
        <mxCell id="CjpBEYz0WgQ5R8Ck3hoN-7" value="工作内存" style="rounded=0;whiteSpace=wrap;html=1;" parent="CjpBEYz0WgQ5R8Ck3hoN-1" vertex="1">
          <mxGeometry x="240" y="120" width="120" height="40" as="geometry" />
        </mxCell>
        <mxCell id="CjpBEYz0WgQ5R8Ck3hoN-17" style="edgeStyle=orthogonalEdgeStyle;rounded=0;orthogonalLoop=1;jettySize=auto;html=1;exitX=1;exitY=0.5;exitDx=0;exitDy=0;entryX=0;entryY=0.5;entryDx=0;entryDy=0;startArrow=classic;startFill=1;" parent="CjpBEYz0WgQ5R8Ck3hoN-1" source="CjpBEYz0WgQ5R8Ck3hoN-9" target="CjpBEYz0WgQ5R8Ck3hoN-15" edge="1">
          <mxGeometry relative="1" as="geometry" />
        </mxCell>
        <mxCell id="CjpBEYz0WgQ5R8Ck3hoN-9" value="工作内存" style="rounded=0;whiteSpace=wrap;html=1;" parent="CjpBEYz0WgQ5R8Ck3hoN-1" vertex="1">
          <mxGeometry x="240" y="200" width="120" height="40" as="geometry" />
        </mxCell>
        <mxCell id="CjpBEYz0WgQ5R8Ck3hoN-18" style="edgeStyle=orthogonalEdgeStyle;rounded=0;orthogonalLoop=1;jettySize=auto;html=1;exitX=1;exitY=0.5;exitDx=0;exitDy=0;entryX=0;entryY=0.75;entryDx=0;entryDy=0;startArrow=classic;startFill=1;" parent="CjpBEYz0WgQ5R8Ck3hoN-1" source="CjpBEYz0WgQ5R8Ck3hoN-11" target="CjpBEYz0WgQ5R8Ck3hoN-15" edge="1">
          <mxGeometry relative="1" as="geometry" />
        </mxCell>
        <mxCell id="CjpBEYz0WgQ5R8Ck3hoN-11" value="工作内存" style="rounded=0;whiteSpace=wrap;html=1;" parent="CjpBEYz0WgQ5R8Ck3hoN-1" vertex="1">
          <mxGeometry x="240" y="280" width="120" height="40" as="geometry" />
        </mxCell>
        <mxCell id="CjpBEYz0WgQ5R8Ck3hoN-13" style="edgeStyle=orthogonalEdgeStyle;rounded=0;orthogonalLoop=1;jettySize=auto;html=1;exitX=1;exitY=0.5;exitDx=0;exitDy=0;entryX=0;entryY=0.5;entryDx=0;entryDy=0;startArrow=classic;startFill=1;" parent="CjpBEYz0WgQ5R8Ck3hoN-1" source="CjpBEYz0WgQ5R8Ck3hoN-3" target="CjpBEYz0WgQ5R8Ck3hoN-9" edge="1">
          <mxGeometry relative="1" as="geometry" />
        </mxCell>
        <mxCell id="CjpBEYz0WgQ5R8Ck3hoN-3" value="线程2" style="rounded=0;whiteSpace=wrap;html=1;" parent="CjpBEYz0WgQ5R8Ck3hoN-1" vertex="1">
          <mxGeometry x="40" y="200" width="120" height="40" as="geometry" />
        </mxCell>
        <mxCell id="CjpBEYz0WgQ5R8Ck3hoN-14" style="edgeStyle=orthogonalEdgeStyle;rounded=0;orthogonalLoop=1;jettySize=auto;html=1;exitX=1;exitY=0.5;exitDx=0;exitDy=0;entryX=0;entryY=0.5;entryDx=0;entryDy=0;startArrow=classic;startFill=1;" parent="CjpBEYz0WgQ5R8Ck3hoN-1" source="CjpBEYz0WgQ5R8Ck3hoN-5" target="CjpBEYz0WgQ5R8Ck3hoN-11" edge="1">
          <mxGeometry relative="1" as="geometry" />
        </mxCell>
        <mxCell id="CjpBEYz0WgQ5R8Ck3hoN-5" value="线程3" style="rounded=0;whiteSpace=wrap;html=1;" parent="CjpBEYz0WgQ5R8Ck3hoN-1" vertex="1">
          <mxGeometry x="40" y="280" width="120" height="40" as="geometry" />
        </mxCell>
        <mxCell id="CjpBEYz0WgQ5R8Ck3hoN-20" value="" style="edgeStyle=orthogonalEdgeStyle;rounded=0;orthogonalLoop=1;jettySize=auto;html=1;startArrow=classic;startFill=1;" parent="CjpBEYz0WgQ5R8Ck3hoN-1" source="CjpBEYz0WgQ5R8Ck3hoN-15" target="CjpBEYz0WgQ5R8Ck3hoN-19" edge="1">
          <mxGeometry relative="1" as="geometry" />
        </mxCell>
        <mxCell id="CjpBEYz0WgQ5R8Ck3hoN-15" value="Load &amp;amp; Save&lt;br&gt;操作" style="rounded=0;whiteSpace=wrap;html=1;" parent="CjpBEYz0WgQ5R8Ck3hoN-1" vertex="1">
          <mxGeometry x="440" y="120" width="80" height="200" as="geometry" />
        </mxCell>
        <mxCell id="CjpBEYz0WgQ5R8Ck3hoN-19" value="主存" style="rounded=0;whiteSpace=wrap;html=1;" parent="CjpBEYz0WgQ5R8Ck3hoN-1" vertex="1">
          <mxGeometry x="600" y="120" width="80" height="200" as="geometry" />
        </mxCell>
        <mxCell id="CjpBEYz0WgQ5R8Ck3hoN-21" value="&lt;font style=&quot;font-size: 14px&quot;&gt;内存屏障&lt;/font&gt;" style="text;html=1;align=center;verticalAlign=middle;resizable=0;points=[];;autosize=1;" parent="CjpBEYz0WgQ5R8Ck3hoN-1" vertex="1">
          <mxGeometry x="54" y="539.5" width="70" height="20" as="geometry" />
        </mxCell>
        <mxCell id="CjpBEYz0WgQ5R8Ck3hoN-24" value="" style="shape=curlyBracket;whiteSpace=wrap;html=1;rounded=1;" parent="CjpBEYz0WgQ5R8Ck3hoN-1" vertex="1">
          <mxGeometry x="124" y="439" width="20" height="221" as="geometry" />
        </mxCell>
        <mxCell id="CjpBEYz0WgQ5R8Ck3hoN-25" value="硬件层面" style="text;html=1;align=center;verticalAlign=middle;resizable=0;points=[];;autosize=1;" parent="CjpBEYz0WgQ5R8Ck3hoN-1" vertex="1">
          <mxGeometry x="160" y="437" width="60" height="20" as="geometry" />
        </mxCell>
        <mxCell id="CjpBEYz0WgQ5R8Ck3hoN-26" value="JMM层面" style="text;html=1;align=center;verticalAlign=middle;resizable=0;points=[];;autosize=1;" parent="CjpBEYz0WgQ5R8Ck3hoN-1" vertex="1">
          <mxGeometry x="155" y="640" width="70" height="20" as="geometry" />
        </mxCell>
        <mxCell id="CjpBEYz0WgQ5R8Ck3hoN-29" value="Sfence：Store Barrier, 写屏障" style="text;html=1;align=center;verticalAlign=middle;resizable=0;points=[];;autosize=1;" parent="CjpBEYz0WgQ5R8Ck3hoN-1" vertex="1">
          <mxGeometry x="275" y="379" width="170" height="20" as="geometry" />
        </mxCell>
        <mxCell id="CjpBEYz0WgQ5R8Ck3hoN-30" value="Lfence:&amp;nbsp; Load Barrier， 读屏障" style="text;html=1;align=center;verticalAlign=middle;resizable=0;points=[];;autosize=1;" parent="CjpBEYz0WgQ5R8Ck3hoN-1" vertex="1">
          <mxGeometry x="270" y="424" width="180" height="20" as="geometry" />
        </mxCell>
        <mxCell id="CjpBEYz0WgQ5R8Ck3hoN-31" value="Mfence: modify/mix Barrier，全能屏障" style="text;html=1;align=center;verticalAlign=middle;resizable=0;points=[];;autosize=1;" parent="CjpBEYz0WgQ5R8Ck3hoN-1" vertex="1">
          <mxGeometry x="273.5" y="463" width="220" height="20" as="geometry" />
        </mxCell>
        <mxCell id="CjpBEYz0WgQ5R8Ck3hoN-32" value="lock前缀，一种锁，锁住内存子系统，可跨CPU" style="text;html=1;align=center;verticalAlign=middle;resizable=0;points=[];;autosize=1;" parent="CjpBEYz0WgQ5R8Ck3hoN-1" vertex="1">
          <mxGeometry x="270" y="502" width="270" height="20" as="geometry" />
        </mxCell>
        <mxCell id="CjpBEYz0WgQ5R8Ck3hoN-33" value="" style="shape=curlyBracket;whiteSpace=wrap;html=1;rounded=1;" parent="CjpBEYz0WgQ5R8Ck3hoN-1" vertex="1">
          <mxGeometry x="240" y="376" width="20" height="142" as="geometry" />
        </mxCell>
        <mxCell id="CjpBEYz0WgQ5R8Ck3hoN-34" value="" style="shape=curlyBracket;whiteSpace=wrap;html=1;rounded=1;size=0.15;" parent="CjpBEYz0WgQ5R8Ck3hoN-1" vertex="1">
          <mxGeometry x="240" y="570" width="20" height="150" as="geometry" />
        </mxCell>
        <mxCell id="CjpBEYz0WgQ5R8Ck3hoN-36" value="LoadLoad屏障" style="text;html=1;align=center;verticalAlign=middle;resizable=0;points=[];;autosize=1;" parent="CjpBEYz0WgQ5R8Ck3hoN-1" vertex="1">
          <mxGeometry x="275" y="564" width="90" height="20" as="geometry" />
        </mxCell>
        <mxCell id="CjpBEYz0WgQ5R8Ck3hoN-37" value="LoadStore屏障" style="text;html=1;align=center;verticalAlign=middle;resizable=0;points=[];;autosize=1;" parent="CjpBEYz0WgQ5R8Ck3hoN-1" vertex="1">
          <mxGeometry x="275" y="610" width="90" height="20" as="geometry" />
        </mxCell>
        <mxCell id="CjpBEYz0WgQ5R8Ck3hoN-38" value="StoreStore屏障" style="text;html=1;align=center;verticalAlign=middle;resizable=0;points=[];;autosize=1;" parent="CjpBEYz0WgQ5R8Ck3hoN-1" vertex="1">
          <mxGeometry x="270" y="655" width="100" height="20" as="geometry" />
        </mxCell>
        <mxCell id="CjpBEYz0WgQ5R8Ck3hoN-39" value="StoreLoad屏障" style="text;html=1;align=center;verticalAlign=middle;resizable=0;points=[];;autosize=1;" parent="CjpBEYz0WgQ5R8Ck3hoN-1" vertex="1">
          <mxGeometry x="275" y="700" width="90" height="20" as="geometry" />
        </mxCell>
      </root>
    </mxGraphModel>
  </diagram>
</mxfile>
